<svg 
 xmlns="http://www.w3.org/2000/svg"
 xmlns:xlink="http://www.w3.org/1999/xlink"
 width="1758px" height="182px">
<path fill-rule="evenodd"  stroke="rgb(0, 0, 6)" stroke-width="0px" stroke-linecap="butt" stroke-linejoin="miter" fill="rgb(242, 75, 56)"
 d="M195.128,90.999 C204.793,90.999 212.628,98.834 212.628,108.499 C212.628,118.164 204.793,125.999 195.128,125.999 C185.463,125.999 177.628,118.164 177.628,108.499 C177.628,98.834 185.463,90.999 195.128,90.999 Z"/>
<path fill-rule="evenodd"  stroke="rgb(0, 0, 6)" stroke-width="0px" stroke-linecap="butt" stroke-linejoin="miter" fill="rgb(242, 75, 56)"
 d="M1087.967,91.8 C1097.632,91.8 1105.467,98.843 1105.467,108.508 C1105.467,118.173 1097.632,126.8 1087.967,126.8 C1078.302,126.8 1070.467,118.173 1070.467,108.508 C1070.467,98.843 1078.302,91.8 1087.967,91.8 Z"/>
<path fill-rule="evenodd"  stroke="rgb(0, 0, 6)" stroke-width="0px" stroke-linecap="butt" stroke-linejoin="miter" fill="rgb(242, 75, 56)"
 d="M612.875,90.999 C622.540,90.999 630.375,98.834 630.375,108.499 C630.375,118.164 622.540,125.999 612.875,125.999 C603.210,125.999 595.375,118.164 595.375,108.499 C595.375,98.834 603.210,90.999 612.875,90.999 Z"/>
<path fill-rule="evenodd"  stroke="rgb(0, 0, 6)" stroke-width="0px" stroke-linecap="butt" stroke-linejoin="miter" fill="rgb(244, 202, 60)"
 d="M504.924,90.999 C514.589,90.999 522.424,98.834 522.424,108.499 C522.424,118.164 514.589,125.999 504.924,125.999 C495.259,125.999 487.424,118.164 487.424,108.499 C487.424,98.834 495.259,90.999 504.924,90.999 Z"/>
<path fill-rule="evenodd"  stroke="rgb(0, 0, 6)" stroke-width="0px" stroke-linecap="butt" stroke-linejoin="miter" fill="rgb(244, 202, 60)"
 d="M790.296,90.986 C799.961,90.986 807.796,98.821 807.796,108.486 C807.796,118.151 799.961,125.986 790.296,125.986 C780.631,125.986 772.796,118.151 772.796,108.486 C772.796,98.821 780.631,90.986 790.296,90.986 Z"/>
<path fill-rule="evenodd"  stroke="rgb(0, 0, 6)" stroke-width="0px" stroke-linecap="butt" stroke-linejoin="miter" fill="rgb(244, 202, 60)"
 d="M1625.63,90.986 C1634.728,90.986 1642.563,98.821 1642.563,108.486 C1642.563,118.151 1634.728,125.986 1625.63,125.986 C1615.398,125.986 1607.563,118.151 1607.563,108.486 C1607.563,98.821 1615.398,90.986 1625.63,90.986 Z"/>
<path fill-rule="evenodd"  stroke="rgb(0, 0, 6)" stroke-width="0px" stroke-linecap="butt" stroke-linejoin="miter" fill="rgb(1, 177, 244)"
 d="M346.322,90.990 C355.987,90.990 363.822,98.825 363.822,108.490 C363.822,118.155 355.987,125.990 346.322,125.990 C336.657,125.990 328.822,118.155 328.822,108.490 C328.822,98.825 336.657,90.990 346.322,90.990 Z"/>
<path fill-rule="evenodd"  stroke="rgb(0, 0, 6)" stroke-width="0px" stroke-linecap="butt" stroke-linejoin="miter" fill="rgb(1, 177, 244)"
 d="M1228.508,91.21 C1238.173,91.21 1246.8,98.856 1246.8,108.521 C1246.8,118.186 1238.173,126.21 1228.508,126.21 C1218.843,126.21 1211.8,118.186 1211.8,108.521 C1211.8,98.856 1218.843,91.21 1228.508,91.21 Z"/>
<path fill-rule="evenodd"  stroke="rgb(0, 0, 6)" stroke-width="0px" stroke-linecap="butt" stroke-linejoin="miter" fill="rgb(1, 177, 244)"
 d="M909.675,90.999 C919.340,90.999 927.175,98.834 927.175,108.499 C927.175,118.164 919.340,125.999 909.675,125.999 C900.10,125.999 892.175,118.164 892.175,108.499 C892.175,98.834 900.10,90.999 909.675,90.999 Z"/>
<path fill-rule="evenodd"  fill="rgb(0, 0, 0)" 
 d="M1756.658,144.615 L1753.853,169.350 C1753.682,171.278 1753.510,172.756 1753.343,173.788 C1753.172,174.820 1752.833,175.657 1752.323,176.294 C1751.813,176.936 1751.88,177.338 1750.155,177.509 C1749.219,177.677 1747.817,177.764 1745.948,177.764 C1740.677,177.764 1732.644,177.438 1721.850,176.788 C1711.53,176.135 1697.410,175.808 1680.923,175.808 C1673.273,175.808 1667.448,176.7 1663.455,176.406 C1659.459,176.804 1656.953,176.999 1655.933,176.999 C1652.192,176.999 1650.323,175.641 1650.323,172.920 C1650.323,170.712 1651.343,169.604 1653.383,169.604 C1655.423,169.604 1658.57,169.350 1661.288,168.840 C1665.25,168.329 1667.237,166.800 1667.918,164.249 C1668.595,161.700 1668.938,157.962 1668.938,153.30 L1668.938,36.240 C1668.938,32.331 1668.723,29.610 1668.300,28.80 C1667.874,26.550 1666.472,25.362 1664.93,24.510 C1662.730,24.0 1661.372,23.745 1660.13,23.745 C1658.650,23.745 1657.463,23.661 1656.443,23.490 C1655.423,23.322 1654.614,23.23 1654.20,22.597 C1653.423,22.175 1653.128,21.282 1653.128,19.919 C1653.128,17.541 1654.570,16.350 1657.463,16.350 C1658.483,16.350 1662.137,16.521 1668.428,16.860 C1674.715,17.202 1683.728,17.370 1695.458,17.370 C1710.415,17.370 1722.62,17.202 1730.393,16.860 C1738.720,16.521 1743.737,16.350 1745.438,16.350 C1748.837,16.350 1750.877,16.947 1751.558,18.135 C1752.235,19.326 1752.578,21.282 1752.578,24.0 L1752.578,25.20 L1752.578,46.949 C1752.578,51.201 1751.642,53.325 1749.773,53.325 C1748.582,53.325 1747.689,52.731 1747.95,51.540 C1746.498,50.352 1745.860,48.822 1745.183,46.949 C1744.502,45.81 1743.565,42.997 1742.378,40.702 C1741.187,38.407 1739.485,36.240 1737.278,34.199 C1730.305,27.741 1719.938,24.510 1706.168,24.510 C1702.765,24.510 1700.132,24.764 1698.263,25.275 C1696.390,25.785 1694.988,26.637 1694.55,27.824 C1693.119,29.16 1692.525,30.590 1692.270,32.542 C1692.15,34.498 1691.888,37.5 1691.888,40.65 L1691.888,82.139 C1691.888,84.351 1692.55,85.753 1692.398,86.347 C1692.737,86.945 1694.95,87.240 1696.478,87.240 L1707.953,87.240 C1713.220,87.240 1717.810,86.773 1721.723,85.837 C1725.632,84.905 1728.182,83.841 1729.373,82.650 C1731.70,80.952 1732.262,79.207 1732.943,77.422 C1733.620,75.637 1734.130,73.980 1734.473,72.450 C1734.812,70.919 1735.194,69.645 1735.620,68.625 C1736.43,67.605 1736.935,67.95 1738.298,67.95 C1740.338,67.95 1741.358,68.286 1741.358,70.665 C1741.358,73.896 1741.143,77.637 1740.720,81.885 C1740.294,86.136 1740.83,90.810 1740.83,95.910 C1740.83,101.862 1740.210,106.663 1740.465,110.317 C1740.720,113.975 1740.848,116.397 1740.848,117.585 C1740.848,120.645 1739.828,122.174 1737.788,122.174 C1736.768,122.174 1735.959,121.708 1735.365,120.772 C1734.768,119.840 1734.258,118.565 1733.835,116.947 C1733.409,115.333 1732.855,113.465 1732.178,111.337 C1731.497,109.213 1730.477,106.875 1729.118,104.325 C1727.78,100.416 1724.357,98.37 1720.958,97.185 C1717.555,96.336 1713.137,95.910 1707.698,95.910 L1696.478,95.910 C1694.605,95.910 1693.374,96.212 1692.780,96.810 C1692.183,97.408 1691.888,98.651 1691.888,100.531 L1691.888,153.428 C1691.888,157.22 1692.143,159.891 1692.653,162.30 C1693.163,164.170 1694.95,165.795 1695.458,166.907 C1696.817,168.23 1698.685,168.792 1701.68,169.218 C1703.447,169.648 1706.507,169.860 1710.248,169.860 C1714.157,169.860 1717.683,169.692 1720.830,169.350 C1723.974,169.11 1726.823,168.329 1729.373,167.310 C1731.923,166.289 1734.218,164.803 1736.258,162.847 C1738.298,160.895 1740.338,158.385 1742.378,155.325 C1745.438,150.567 1747.733,146.443 1749.263,142.957 C1750.793,139.475 1752.578,137.729 1754.618,137.729 C1755.128,137.729 1755.678,138.28 1756.275,138.622 C1756.869,139.220 1757.168,139.686 1757.168,140.25 C1756.997,141.726 1756.825,143.256 1756.658,144.615 ZM1566.300,167.102 C1561.965,171.676 1556.778,175.278 1550.745,177.904 C1544.709,180.530 1538.123,181.844 1530.983,181.844 C1519.763,181.844 1510.667,180.59 1503.698,176.490 C1496.725,172.920 1493.243,167.481 1493.243,160.170 C1493.243,157.281 1493.327,154.476 1493.498,151.755 C1493.665,149.37 1493.753,146.487 1493.753,144.104 C1493.753,142.236 1493.709,140.750 1493.625,139.642 C1493.538,138.538 1493.498,137.817 1493.498,137.475 C1493.498,132.207 1494.773,129.569 1497.323,129.569 C1498.510,129.569 1499.363,130.40 1499.873,130.972 C1500.383,131.908 1500.765,133.183 1501.20,134.797 C1501.275,136.415 1501.570,138.327 1501.913,140.534 C1502.252,142.746 1502.762,145.41 1503.443,147.420 C1505.993,156.90 1510.113,162.807 1515.810,167.565 C1521.504,172.326 1527.580,174.704 1534.43,174.704 C1537.780,174.704 1541.350,173.939 1544.753,172.406 C1548.152,170.876 1551.84,168.748 1553.550,166.23 C1556.13,163.297 1557.969,160.62 1559.415,156.317 C1560.858,152.571 1561.583,148.487 1561.583,144.57 C1561.583,136.223 1559.160,129.203 1554.315,122.987 C1549.470,116.772 1542.203,110.943 1532.513,105.492 C1527.413,102.599 1522.608,99.790 1518.105,97.65 C1513.599,94.340 1509.690,91.192 1506.375,87.614 C1503.60,84.40 1500.423,79.785 1498.470,74.844 C1496.514,69.907 1495.538,63.692 1495.538,56.197 C1495.538,49.559 1496.598,43.519 1498.725,38.68 C1500.849,32.618 1503.865,27.936 1507.778,24.19 C1511.687,20.107 1516.404,17.83 1521.930,14.955 C1527.453,12.827 1533.700,11.760 1540.673,11.760 C1547.813,11.760 1554.144,12.768 1559.670,14.780 C1565.193,16.796 1568.552,18.593 1569.743,20.175 C1571.102,21.876 1571.783,31.139 1571.783,47.970 C1571.783,51.540 1570.675,53.325 1568.468,53.325 C1566.595,53.325 1565.364,52.177 1564.770,49.882 C1564.173,47.587 1562.942,44.232 1561.73,39.809 C1558.352,33.12 1555.375,27.824 1552.148,24.255 C1548.917,20.684 1544.327,18.900 1538.378,18.900 C1530.728,18.900 1524.735,21.230 1520.400,25.892 C1516.65,30.554 1513.898,36.949 1513.898,45.81 C1513.898,51.862 1515.810,57.369 1519.635,61.604 C1523.460,65.843 1529.453,70.79 1537.613,74.314 C1544.410,77.876 1550.447,81.434 1555.718,84.992 C1560.985,88.554 1565.448,92.495 1569.105,96.814 C1572.759,101.137 1575.520,106.10 1577.393,111.433 C1579.262,116.855 1580.198,123.127 1580.198,130.243 C1580.198,137.702 1578.963,144.563 1576.500,150.834 C1574.34,157.106 1570.635,162.528 1566.300,167.102 ZM1362.428,177.764 C1360.555,177.764 1358.57,177.509 1354.929,176.999 C1351.802,176.490 1348.140,176.235 1343.940,176.235 C1339.574,176.235 1335.653,176.490 1332.187,176.999 C1328.716,177.509 1325.792,177.764 1323.413,177.764 C1320.353,177.764 1318.823,176.406 1318.823,173.684 C1318.823,172.497 1319.78,171.644 1319.588,171.135 C1320.98,170.624 1320.775,170.286 1321.628,170.115 C1322.477,169.947 1323.453,169.776 1324.560,169.604 C1325.664,169.437 1326.812,169.95 1328.3,168.584 C1330.553,167.397 1332.83,166.34 1332.593,164.504 C1333.103,162.975 1333.358,160.680 1333.358,157.620 L1333.358,106.110 C1333.358,85.542 1326.600,75.255 1313.89,75.255 C1306.930,75.255 1301.842,77.466 1297.821,81.885 C1293.801,86.307 1291.793,93.105 1291.793,102.285 L1291.793,157.620 C1291.793,160.170 1292.48,162.297 1292.558,163.994 C1293.68,165.696 1294.88,167.55 1295.618,168.74 C1296.805,168.927 1297.997,169.393 1299.188,169.477 C1300.375,169.565 1301.439,169.732 1302.375,169.987 C1303.308,170.242 1304.73,170.624 1304.670,171.135 C1305.264,171.644 1305.563,172.664 1305.563,174.195 C1305.563,176.577 1304.117,177.764 1301.228,177.764 C1299.527,177.764 1296.985,177.509 1293.598,176.999 C1290.211,176.490 1286.79,176.235 1281.210,176.235 C1276.338,176.235 1272.210,176.490 1268.823,176.999 C1265.436,177.509 1262.723,177.764 1260.683,177.764 C1257.623,177.764 1256.93,176.406 1256.93,173.684 C1256.93,172.497 1256.348,171.688 1256.858,171.262 C1257.368,170.840 1258.5,170.541 1258.770,170.369 C1259.535,170.202 1260.468,170.31 1261.575,169.860 C1262.679,169.692 1263.910,169.350 1265.273,168.840 C1267.990,167.819 1269.564,166.505 1269.990,164.887 C1270.413,163.273 1270.628,160.851 1270.628,157.620 L1270.628,30.375 C1270.628,26.637 1270.30,24.0 1268.843,22.470 C1267.652,20.940 1266.377,19.880 1265.18,19.282 C1263.655,18.688 1262.380,18.262 1261.193,18.7 C1260.2,17.752 1259.408,16.947 1259.408,15.585 C1259.408,13.716 1260.555,12.485 1262.850,11.887 C1265.145,11.293 1267.903,10.401 1271.130,9.210 C1277.11,7.2 1281.334,4.918 1284.107,2.962 C1286.880,1.10 1288.685,0.29 1289.526,0.29 C1290.869,0.29 1291.709,0.456 1292.48,1.305 C1292.387,2.157 1292.558,3.345 1292.558,4.875 C1292.558,7.257 1292.430,9.891 1292.175,12.779 C1291.920,15.672 1291.793,18.816 1291.793,22.214 L1291.793,75.510 C1291.793,77.721 1291.960,78.825 1292.303,78.825 C1292.813,78.825 1293.490,78.315 1294.343,77.294 L1296.893,73.980 C1300.120,69.732 1303.945,66.373 1308.368,63.907 C1312.787,61.445 1317.377,60.209 1322.138,60.209 C1332.338,60.209 1340.283,63.696 1345.980,70.665 C1351.674,77.637 1354.523,87.582 1354.523,100.500 L1354.523,157.620 C1354.523,160.341 1354.690,162.465 1355.33,163.994 C1355.372,165.525 1356.220,166.716 1357.583,167.565 C1358.942,168.584 1360.133,169.222 1361.153,169.477 C1362.173,169.732 1363.65,169.987 1363.830,170.242 C1364.595,170.497 1365.189,170.879 1365.615,171.390 C1366.38,171.900 1366.253,172.836 1366.253,174.195 C1366.253,176.577 1364.978,177.764 1362.428,177.764 ZM1146.953,95.21 C1149.160,96.714 1151.838,98.364 1154.985,99.974 C1158.129,101.583 1161.655,103.400 1165.568,105.428 C1173.895,109.831 1180.15,114.783 1183.928,120.282 C1187.837,125.784 1189.793,132.681 1189.793,140.973 C1189.793,147.404 1188.813,153.161 1186.860,158.237 C1184.904,163.313 1182.143,167.588 1178.573,171.55 C1175.3,174.525 1170.795,177.187 1165.950,179.51 C1161.105,180.912 1155.790,181.844 1150.13,181.844 C1144.232,181.844 1139.48,181.207 1134.458,179.932 C1129.868,178.657 1126.382,177.254 1124.3,175.724 C1122.473,174.876 1121.537,173.772 1121.198,172.409 C1120.855,171.51 1120.688,169.182 1120.688,166.800 L1120.688,160.425 C1120.688,153.456 1120.855,148.400 1121.198,145.252 C1121.537,142.108 1122.640,140.534 1124.513,140.534 C1125.700,140.534 1126.553,140.961 1127.63,141.810 C1127.573,142.662 1128.39,143.893 1128.465,145.507 C1128.888,147.125 1129.398,149.77 1129.995,151.372 C1130.589,153.667 1131.565,156.261 1132.928,159.149 C1137.685,169.521 1144.487,174.704 1153.328,174.704 C1158.767,174.704 1163.229,172.836 1166.715,169.95 C1170.198,165.357 1171.943,160.341 1171.943,154.50 C1171.943,150.822 1171.389,147.973 1170.285,145.507 C1169.178,143.45 1167.564,140.833 1165.440,138.877 C1163.313,136.925 1160.723,135.52 1157.663,133.267 C1154.603,131.482 1151.200,129.569 1147.463,127.530 C1143.212,125.322 1139.470,123.155 1136.243,121.27 C1133.12,118.903 1130.290,116.608 1128.83,114.142 C1125.872,111.680 1124.214,108.875 1123.110,105.727 C1122.3,102.583 1121.453,98.886 1121.453,94.635 C1121.453,84.96 1124.724,75.725 1131.270,69.517 C1137.813,63.313 1146.188,60.209 1156.388,60.209 C1167.98,60.209 1174.405,61.309 1178.318,63.505 C1182.227,65.704 1184.183,69.23 1184.183,73.470 C1184.183,79.422 1183.928,83.797 1183.418,86.602 C1182.908,89.407 1181.800,90.810 1180.103,90.810 C1178.230,90.810 1177.127,89.622 1176.788,87.240 C1176.445,84.861 1175.258,81.885 1173.218,78.315 C1168.967,71.7 1163.357,67.349 1156.388,67.349 C1151.455,67.349 1147.503,68.748 1144.530,71.541 C1141.554,74.334 1140.68,77.928 1140.68,82.327 C1140.68,85.203 1140.662,87.618 1141.853,89.562 C1143.40,91.511 1144.742,93.332 1146.953,95.21 ZM1036.410,165.270 C1031.733,170.541 1025.995,174.621 1019.198,177.509 C1012.397,180.398 1004.747,181.844 996.248,181.844 C988.598,181.844 981.625,180.354 975.338,177.382 C969.47,174.410 963.648,170.242 959.145,164.887 C954.639,159.532 951.153,153.117 948.690,145.635 C946.224,138.156 944.993,129.912 944.993,120.900 C944.993,111.720 946.268,103.392 948.818,95.910 C951.368,88.431 955.22,82.56 959.783,76.785 C964.540,71.517 970.238,67.437 976.868,64.545 C983.498,61.656 990.893,60.209 999.53,60.209 C1006.870,60.209 1014.10,61.700 1020.473,64.672 C1026.932,67.648 1032.414,71.812 1036.920,77.167 C1041.423,82.522 1044.909,88.941 1047.375,96.419 C1049.838,103.902 1051.73,112.230 1051.73,121.409 C1051.73,130.422 1049.798,138.666 1047.248,146.145 C1044.698,153.627 1041.84,160.2 1036.410,165.270 ZM1020.90,82.522 C1014.393,72.410 1007.42,67.349 998.33,67.349 C988.343,67.349 980.860,71.685 975.593,80.355 C970.322,89.25 967.688,101.352 967.688,117.330 C967.688,135.351 970.533,149.420 976.230,159.532 C981.924,169.648 989.363,174.704 998.543,174.704 C1007.890,174.704 1015.245,170.330 1020.600,161.572 C1025.955,152.818 1028.633,140.534 1028.633,124.725 C1028.633,106.707 1025.784,92.638 1020.90,82.522 ZM855.870,161.317 C857.313,164.975 859.990,166.800 863.903,166.800 C865.772,166.800 867.429,166.461 868.875,165.780 C870.318,165.102 871.637,164.293 872.828,163.357 C874.15,162.425 875.79,161.616 876.15,160.934 C876.948,160.257 877.840,159.915 878.693,159.915 C880.390,159.915 881.243,161.106 881.243,163.485 C881.243,164.676 880.478,166.289 878.948,168.329 C877.418,170.369 875.334,172.409 872.700,174.449 C870.63,176.490 867.3,178.231 863.520,179.677 C860.34,181.119 856.349,181.844 852.460,181.844 C839.176,181.844 832.538,171.51 832.538,149.460 L832.538,138.750 L833.534,83.925 C833.534,81.546 833.367,79.633 833.36,78.187 C832.701,76.745 831.685,76.20 829.988,76.20 L825.398,76.20 C822.338,76.20 820.808,74.916 820.808,72.705 C820.808,71.685 821.230,70.752 822.83,69.900 C822.932,69.51 824.123,68.115 825.653,67.95 C827.183,66.75 828.920,64.800 830.865,63.270 C832.809,61.740 834.941,59.700 837.267,57.150 C841.252,52.392 844.196,48.312 846.109,44.910 C848.17,41.511 849.719,39.809 851.213,39.809 C852.376,39.809 853.81,40.363 853.328,41.467 C853.575,42.575 853.703,44.61 853.703,45.930 L853.703,61.485 C853.703,63.696 854.807,64.800 857.18,64.800 L876.143,64.800 C877.673,64.800 878.605,64.971 878.948,65.310 C879.287,65.652 879.458,66.330 879.458,67.349 L879.458,72.450 C879.458,73.812 879.287,74.745 878.948,75.255 C878.605,75.764 877.673,76.20 876.143,76.20 L856.763,76.20 C854.723,76.20 853.703,77.127 853.703,79.334 L853.703,143.850 C853.703,151.842 854.424,157.663 855.870,161.317 ZM753.998,178.19 C751.615,178.19 748.735,177.721 745.352,177.127 C741.965,176.533 738.92,176.235 733.725,176.235 C729.359,176.235 725.609,176.533 722.482,177.127 C719.350,177.721 716.935,178.19 715.238,178.19 C712.517,178.19 711.158,176.577 711.158,173.684 C711.158,172.497 711.369,171.644 711.795,171.135 C712.218,170.624 712.815,170.286 713.580,170.115 C714.345,169.947 715.194,169.820 716.130,169.732 C717.63,169.648 718.43,169.350 719.63,168.840 C721.103,167.819 722.290,166.505 722.633,164.887 C722.972,163.273 723.143,160.934 723.143,157.874 L723.143,106.364 C723.143,96.165 721.262,88.475 717.501,83.287 C713.740,78.103 708.353,75.510 701.340,75.510 C694.842,75.510 689.543,77.721 685.439,82.139 C681.335,86.562 679.283,93.360 679.283,102.540 L679.283,157.874 C679.283,160.767 679.494,163.18 679.920,164.632 C680.343,166.250 681.407,167.481 683.108,168.329 C684.638,169.182 685.997,169.648 687.188,169.732 C688.375,169.820 689.439,169.947 690.375,170.115 C691.308,170.286 692.33,170.624 692.543,171.135 C693.53,171.644 693.308,172.664 693.308,174.195 C693.308,176.744 691.778,178.19 688.718,178.19 C686.335,178.19 683.455,177.721 680.72,177.127 C676.689,176.533 672.900,176.235 668.700,176.235 C664.334,176.235 660.628,176.533 657.584,177.127 C654.540,177.721 652.82,178.19 650.213,178.19 C647.492,178.19 646.133,176.577 646.133,173.684 C646.133,172.497 646.344,171.644 646.770,171.135 C647.193,170.624 647.747,170.286 648.428,170.115 C649.105,169.947 649.914,169.820 650.850,169.732 C651.783,169.648 652.763,169.350 653.783,168.840 C655.652,167.991 656.843,166.800 657.353,165.270 C657.863,163.739 658.118,161.277 658.118,157.874 L658.118,97.694 C658.118,93.105 657.564,90.44 656.460,88.514 C655.353,86.985 654.122,86.52 652.763,85.709 C651.400,85.371 650.169,85.160 649.65,85.72 C647.958,84.988 647.408,84.96 647.408,82.395 C647.408,80.697 648.512,79.207 650.723,77.932 C652.930,76.657 656.158,74.745 660.405,72.194 C665.322,69.306 668.796,66.501 670.828,63.779 C672.860,61.62 674.641,59.700 676.171,59.700 C676.677,59.700 677.183,60.126 677.693,60.974 C678.203,61.827 678.458,63.186 678.458,65.55 L678.458,75.510 C678.458,77.721 678.709,78.825 679.219,78.825 C679.729,78.825 680.407,78.315 681.255,77.294 L684.52,73.980 C687.610,69.561 691.718,66.162 696.380,63.779 C701.42,61.401 705.915,60.209 711.3,60.209 C721.509,60.209 729.685,63.823 735.534,71.47 C741.383,78.275 744.308,88.941 744.308,103.50 L744.308,157.874 C744.308,163.146 745.583,166.632 748.133,168.329 C749.320,169.11 750.555,169.437 751.830,169.604 C753.105,169.776 754.253,169.947 755.273,170.115 C756.293,170.286 757.98,170.624 757.695,171.135 C758.289,171.644 758.588,172.581 758.588,173.939 C758.588,176.661 757.58,178.19 753.998,178.19 ZM576.263,178.19 C573.713,178.19 570.661,177.721 567.111,177.127 C563.557,176.533 559.768,176.235 555.735,176.235 C551.369,176.235 547.663,176.533 544.619,177.127 C541.575,177.721 539.117,178.19 537.248,178.19 C534.698,178.19 533.423,176.577 533.423,173.684 C533.423,172.497 533.634,171.644 534.60,171.135 C534.483,170.624 535.80,170.286 535.845,170.115 C536.610,169.947 537.415,169.820 538.268,169.732 C539.117,169.648 540.53,169.350 541.73,168.840 C542.942,167.819 544.89,166.588 544.515,165.142 C544.938,163.700 545.153,161.277 545.153,157.874 L545.153,97.694 C545.153,93.105 544.599,90.44 543.495,88.514 C542.388,86.985 541.200,86.8 539.925,85.582 C538.650,85.160 537.459,84.905 536.355,84.817 C535.248,84.733 534.698,83.841 534.698,82.139 C534.698,80.271 535.845,78.741 538.140,77.550 C540.435,76.362 543.695,74.577 547.926,72.194 C550.444,70.665 552.584,69.135 554.349,67.605 C556.110,66.75 557.580,64.716 558.760,63.525 C559.935,62.337 560.899,61.357 561.656,60.592 C562.413,59.827 563.126,59.444 563.800,59.444 C565.477,59.444 566.318,61.230 566.318,64.800 L566.318,157.874 C566.318,160.934 566.613,163.230 567.210,164.760 C567.804,166.289 568.868,167.481 570.398,168.329 C571.757,169.11 573.75,169.437 574.350,169.604 C575.625,169.776 576.729,169.987 577.665,170.242 C578.598,170.497 579.363,170.879 579.960,171.390 C580.554,171.900 580.853,172.752 580.853,173.939 C580.853,176.661 579.323,178.19 576.263,178.19 ZM556.883,43.889 C553.823,43.889 551.185,42.447 548.978,39.555 C546.767,36.666 545.663,33.434 545.663,29.865 C545.663,26.294 546.767,23.67 548.978,20.175 C551.185,17.286 553.823,15.839 556.883,15.839 C559.943,15.839 562.577,17.286 564.788,20.175 C566.995,23.67 568.103,26.294 568.103,29.865 C568.103,33.434 566.995,36.666 564.788,39.555 C562.577,42.447 559.943,43.889 556.883,43.889 ZM416.250,154.245 C419.394,158.560 423.92,161.859 427.343,164.142 C431.590,166.425 436.268,167.565 441.368,167.565 C444.595,167.565 447.528,167.15 450.165,165.907 C452.799,164.803 455.10,163.572 456.795,162.209 C458.580,160.851 460.23,159.620 461.130,158.512 C462.234,157.408 463.43,156.854 463.553,156.854 C465.760,156.854 466.868,157.962 466.868,160.170 C466.868,161.700 465.975,163.700 464.190,166.162 C462.405,168.628 459.939,171.7 456.795,173.302 C453.648,175.597 449.867,177.593 445.448,179.295 C441.25,180.992 436.268,181.844 431.168,181.844 C424.367,181.844 418.75,180.442 412.298,177.637 C406.517,174.832 401.500,170.840 397.253,165.652 C393.2,160.468 389.687,154.177 387.308,146.782 C384.925,139.387 383.738,131.100 383.738,121.920 C383.738,112.401 385.53,103.858 387.690,96.292 C390.324,88.730 393.938,82.267 398.528,76.912 C403.118,71.557 408.557,67.437 414.848,64.545 C421.135,61.656 428.20,60.209 435.503,60.209 C439.583,60.209 443.408,60.668 446.978,61.584 C450.548,62.501 453.648,63.688 456.285,65.154 C458.919,66.620 461.43,68.286 462.660,70.154 C464.274,72.27 465.83,74.67 465.83,76.275 C465.83,82.737 464.445,87.793 463.170,91.447 C461.895,95.105 460.238,96.930 458.198,96.930 C455.815,96.930 453.520,94.467 451.313,89.535 C449.783,86.307 448.420,83.287 447.233,80.482 C446.42,77.677 444.767,75.342 443.408,73.470 C442.45,71.601 440.559,70.115 438.945,69.7 C437.328,67.903 435.332,67.349 432.953,67.349 C429.893,67.349 426.745,68.493 423.518,70.776 C420.287,73.59 417.398,76.358 414.848,80.669 C412.298,84.984 410.214,90.184 408.600,96.272 C406.983,102.360 406.178,109.297 406.178,117.75 C406.178,125.27 407.70,132.131 408.855,138.387 C410.640,144.646 413.103,149.934 416.250,154.245 ZM314.760,174.195 C312.633,176.67 310.338,177.677 307.875,179.39 C305.409,180.398 303.154,181.79 301.110,181.79 C296.671,181.79 293.6,179.633 290.105,176.744 C287.205,173.856 284.814,169.521 282.941,163.739 L281.403,163.739 L276.28,168.329 C271.590,172.71 267.410,175.258 263.490,177.892 C259.565,180.526 255.214,181.844 250.437,181.844 C244.978,181.844 240.583,180.16 237.256,176.362 C233.929,172.708 232.268,167.652 232.268,161.190 C232.268,155.579 233.204,150.651 235.81,146.400 C236.958,142.152 239.687,138.283 243.273,134.797 C246.855,131.315 251.162,128.40 256.194,124.979 C261.226,121.920 266.816,118.860 272.960,115.800 L279.355,112.485 C280.718,111.807 281.531,111.82 281.786,110.317 C282.41,109.552 282.172,108.237 282.172,106.364 L282.172,88.260 C282.172,81.120 281.614,75.936 280.507,72.705 C279.399,69.477 276.626,67.860 272.191,67.860 C267.753,67.860 264.255,69.350 261.697,72.322 C259.139,75.298 256.664,79.506 254.278,84.944 C252.397,89.196 250.309,92.810 248.6,95.782 C245.703,98.758 241.990,100.245 236.874,100.245 C235.507,100.245 234.356,99.822 233.419,98.970 C232.479,98.121 232.13,97.17 232.13,95.654 C232.13,91.917 233.164,87.921 235.467,83.669 C237.770,79.422 241.10,75.553 245.189,72.67 C249.369,68.585 254.317,65.692 260.35,63.397 C265.749,61.102 271.936,59.955 278.590,59.955 C284.49,59.955 288.440,60.592 291.767,61.867 C295.94,63.142 297.612,65.15 299.317,67.477 C301.22,69.943 302.134,73.3 302.644,76.657 C303.154,80.315 303.413,84.522 303.413,89.279 L303.413,148.440 C303.413,153.882 303.752,157.962 304.433,160.680 C305.110,163.401 306.895,164.760 309.788,164.760 C311.657,164.760 313.358,163.911 314.888,162.209 C316.418,160.512 317.948,159.659 319.478,159.659 C321.518,159.659 322.538,160.934 322.538,163.485 C322.538,164.847 321.773,166.505 320.243,168.457 C318.713,170.413 316.884,172.326 314.760,174.195 ZM282.248,122.685 C282.248,120.645 281.822,119.625 280.973,119.625 C280.463,119.625 279.610,119.967 278.423,120.645 L270.8,124.725 C259.975,129.825 254.963,138.327 254.963,150.225 C254.963,155.157 255.855,158.895 257.640,161.445 C259.425,163.994 261.760,165.270 264.653,165.270 C266.693,165.270 268.733,164.720 270.773,163.612 C272.813,162.508 274.682,160.978 276.383,159.22 C278.80,157.70 279.483,154.731 280.590,152.10 C281.694,149.292 282.248,146.232 282.248,142.830 L282.248,122.685 ZM159.83,176.744 C156.362,176.744 153.90,176.450 149.265,175.852 C145.440,175.258 140.978,174.959 135.878,174.959 C130.268,174.959 125.379,175.258 121.215,175.852 C117.48,176.450 113.777,176.744 111.398,176.744 C107.995,176.744 106.298,175.386 106.298,172.664 C106.298,170.115 107.573,168.840 110.123,168.840 C113.350,168.840 115.860,168.588 117.645,168.82 C119.430,167.576 120.789,166.688 121.725,165.421 C122.658,164.154 123.212,162.508 123.383,160.484 C123.550,158.460 123.638,155.926 123.638,152.882 L123.638,147.57 L121.853,53.336 C121.853,51.480 121.427,50.551 120.578,50.551 C120.68,50.551 119.558,51.396 119.48,53.85 L81.563,167.827 C80.710,170.373 79.352,171.644 77.483,171.644 C75.272,171.644 73.913,170.628 73.403,168.588 L35.408,53.336 C34.555,51.145 33.962,50.45 33.623,50.45 C32.770,50.45 32.260,51.651 32.93,54.858 L27.758,132.367 C27.587,135.239 27.459,137.857 27.375,140.220 C27.288,142.586 27.248,144.694 27.248,146.551 C27.248,154.488 27.925,160.273 29.288,163.903 C30.647,167.537 33.790,169.350 38.723,169.350 C39.233,169.350 39.743,169.310 40.253,169.222 C40.763,169.138 41.357,169.95 42.38,169.95 C45.265,169.95 46.883,170.369 46.883,172.920 C46.883,175.641 44.755,176.999 40.508,176.999 C38.635,176.999 36.213,176.832 33.240,176.490 C30.264,176.151 26.822,175.979 22.913,175.979 C19.510,175.979 16.494,176.151 13.860,176.490 C11.223,176.832 8.972,176.999 7.103,176.999 C3.23,176.999 0.983,175.641 0.983,172.920 C0.983,170.369 2.170,169.95 4.553,169.95 C5.573,169.95 6.466,169.138 7.230,169.222 C7.995,169.310 8.633,169.350 9.143,169.350 C11.350,169.350 13.135,168.632 14.498,167.198 C15.857,165.764 16.877,163.441 17.558,160.233 C18.235,157.26 18.745,152.846 19.88,147.698 C19.427,142.551 19.765,136.180 20.108,128.581 L24.443,41.985 C24.443,41.650 24.483,41.61 24.570,40.216 C24.654,39.371 24.698,38.276 24.698,36.921 C24.698,33.40 24.355,30.343 23.678,28.821 C22.997,27.303 21.467,26.119 19.88,25.275 C17.558,24.764 16.112,24.470 14.753,24.382 C13.390,24.298 12.203,24.215 11.183,24.127 C10.163,24.43 9.354,23.788 8.760,23.362 C8.163,22.940 7.868,22.47 7.868,20.684 C7.868,18.477 9.55,17.370 11.438,17.370 L44.843,17.370 C45.692,17.370 46.413,17.497 47.10,17.752 C47.604,18.7 48.70,18.645 48.413,19.665 L82.328,122.685 C83.5,124.725 83.603,125.745 84.113,125.745 C84.790,125.745 85.472,124.812 86.153,122.940 L119.558,21.705 C119.897,20.346 120.363,19.282 120.960,18.517 C121.554,17.752 122.530,17.370 123.893,17.370 L156.788,17.370 C159.167,17.370 160.358,18.469 160.358,20.661 C160.358,22.15 159.975,22.900 159.210,23.322 C158.445,23.745 157.465,24.43 156.278,24.211 C155.87,24.378 153.768,24.506 152.325,24.589 C150.879,24.677 149.393,25.55 147.863,25.729 C145.990,26.573 144.843,27.629 144.420,28.896 C143.994,30.163 143.783,32.482 143.783,35.861 L143.783,41.941 L146.588,152.882 C146.755,157.444 147.54,160.739 147.480,162.763 C147.903,164.791 149.477,166.397 152.198,167.576 C153.728,168.254 155.258,168.632 156.788,168.716 C158.318,168.800 159.633,168.883 160.740,168.967 C161.844,169.55 162.737,169.350 163.418,169.860 C164.95,170.369 164.438,171.390 164.438,172.920 C164.438,173.939 163.968,174.832 163.36,175.597 C162.99,176.362 160.780,176.744 159.83,176.744 Z"/>
</svg>